<?xml version="1.0" encoding="utf-8"?>
<!-- Generator: Adobe Illustrator 18.0.0, SVG Export Plug-In . SVG Version: 6.00 Build 0)  -->
<!DOCTYPE svg PUBLIC "-//W3C//DTD SVG 1.1//EN" "http://www.w3.org/Graphics/SVG/1.1/DTD/svg11.dtd">
<svg version="1.1" id="Calque_1" xmlns="http://www.w3.org/2000/svg" xmlns:xlink="http://www.w3.org/1999/xlink" x="0px" y="0px"
	 viewBox="42.9 0 42.1 42.5" enable-background="new 42.9 0 42.1 42.5" xml:space="preserve">
<g id="Background" display="none">
</g>
<g id="Capa_1">
	<rect x="54.9" y="4.4" fill="#FF9900" width="19" height="34.8"/>
	<g>
		<path fill="#339933" d="M82.1,1.9h-2c-0.5,0-0.8,0.4-0.8,0.8v1c0,0.5-0.4,0.8-0.8,0.8h-1.8c-0.5,0-0.8-0.4-0.8-0.8v-1
			c0-0.5-0.4-0.8-0.8-0.8H53.3c-0.5,0-0.8,0.4-0.8,0.8v1c0,0.5-0.4,0.8-0.8,0.8h-2c-0.5,0-0.8-0.4-0.8-0.8v-1c0-0.5-0.4-0.8-0.8-0.8
			h-1.9c-0.5,0-0.8,0.4-0.8,0.8v37.6c0,0.5,0.4,0.8,0.8,0.8h1.9c0.5,0,0.8-0.4,0.8-0.8v-0.8c0-0.5,0.4-0.8,0.8-0.8h1.8
			c0.5,0,0.8,0.4,0.8,0.8v0.8c0,0.5,0.4,0.8,0.8,0.8h21.8c0.5,0,0.8-0.4,0.8-0.8v-0.8c0-0.5,0.4-0.8,0.8-0.8h2
			c0.5,0,0.8,0.4,0.8,0.8v0.8c0,0.5,0.4,0.8,0.8,0.8h2c0.5,0,0.8-0.4,0.8-0.8V2.7C83,2.2,82.6,1.9,82.1,1.9z M52.3,33.9
			c0,0.5-0.4,0.8-0.8,0.8h-1.8c-0.5,0-0.8-0.4-0.8-0.8v-1.8c0-0.5,0.4-0.8,0.8-0.8h1.8c0.5,0,0.8,0.4,0.8,0.8
			C52.3,32.1,52.3,33.9,52.3,33.9z M52.3,26.3c0,0.5-0.4,0.8-0.8,0.8h-1.8c-0.5,0-0.8-0.4-0.8-0.8v-1.8c0-0.5,0.4-0.8,0.8-0.8h1.8
			c0.5,0,0.8,0.4,0.8,0.8V26.3z M52.3,18.9c0,0.5-0.4,0.8-0.8,0.8h-1.8c-0.5,0-0.8-0.4-0.8-0.8v-1.8c0-0.5,0.4-0.8,0.8-0.8h1.8
			c0.5,0,0.8,0.4,0.8,0.8V18.9z M52.3,11.3c0,0.5-0.4,0.8-0.8,0.8h-1.8c-0.5,0-0.8-0.4-0.8-0.8V9.5c0-0.5,0.4-0.8,0.8-0.8h1.8
			c0.5,0,0.8,0.4,0.8,0.8V11.3z M72.3,36.7c0,0.5-0.4,0.8-0.8,0.8H56.9c-0.5,0-0.8-0.4-0.8-0.8V30c0-0.5,0.4-0.8,0.8-0.8h14.5
			c0.5,0,0.8,0.4,0.8,0.8L72.3,36.7L72.3,36.7z M72.3,24.8c0,0.5-0.4,0.8-0.8,0.8H56.9c-0.5,0-0.8-0.4-0.8-0.8v-6.7
			c0-0.5,0.4-0.8,0.8-0.8h14.5c0.5,0,0.8,0.4,0.8,0.8L72.3,24.8L72.3,24.8z M72.3,13c0,0.5-0.4,0.8-0.8,0.8H56.9
			c-0.5,0-0.8-0.4-0.8-0.8V6.3c0-0.5,0.4-0.8,0.8-0.8h14.5c0.5,0,0.8,0.4,0.8,0.8L72.3,13L72.3,13z M79.3,33.9
			c0,0.5-0.4,0.8-0.8,0.8h-1.8c-0.5,0-0.8-0.4-0.8-0.8v-1.8c0-0.5,0.4-0.8,0.8-0.8h1.8c0.5,0,0.8,0.4,0.8,0.8V33.9z M79.3,26.3
			c0,0.5-0.4,0.8-0.8,0.8h-1.8c-0.5,0-0.8-0.4-0.8-0.8v-1.8c0-0.5,0.4-0.8,0.8-0.8h1.8c0.5,0,0.8,0.4,0.8,0.8V26.3z M79.3,18.9
			c0,0.5-0.4,0.8-0.8,0.8h-1.8c-0.5,0-0.8-0.4-0.8-0.8v-1.8c0-0.5,0.4-0.8,0.8-0.8h1.8c0.5,0,0.8,0.4,0.8,0.8V18.9z M79.3,11.3
			c0,0.5-0.4,0.8-0.8,0.8h-1.8c-0.5,0-0.8-0.4-0.8-0.8V9.5c0-0.5,0.4-0.8,0.8-0.8h1.8c0.5,0,0.8,0.4,0.8,0.8V11.3z"/>
	</g>
	<g id="Textes">
		<g>
			<path fill="#663300" d="M56.8,34.2v-0.9c0-0.5,0.1-0.9,0.4-1.2c0.2-0.3,0.6-0.4,1-0.4c0.4,0,0.8,0.1,1,0.4
				c0.2,0.3,0.4,0.7,0.4,1.2v0.9c0,0.5-0.1,0.9-0.4,1.2c-0.2,0.3-0.6,0.4-1,0.4c-0.4,0-0.8-0.1-1-0.4C56.9,35.1,56.8,34.7,56.8,34.2
				z M57.9,33.1v1.3c0,0.2,0.1,0.4,0.3,0.4c0.2,0,0.3-0.1,0.3-0.4v-1.3c0-0.2-0.1-0.4-0.3-0.4C58,32.7,57.9,32.9,57.9,33.1z"/>
			<path fill="#663300" d="M60.1,34.2v-0.9c0-0.5,0.1-0.9,0.4-1.2c0.2-0.3,0.6-0.4,1-0.4c0.4,0,0.8,0.1,1,0.4
				c0.2,0.3,0.4,0.7,0.4,1.2v0.9c0,0.5-0.1,0.9-0.4,1.2c-0.2,0.3-0.6,0.4-1,0.4c-0.4,0-0.8-0.1-1-0.4C60.2,35.1,60.1,34.7,60.1,34.2
				z M61.2,33.1v1.3c0,0.2,0.1,0.4,0.3,0.4c0.2,0,0.3-0.1,0.3-0.4v-1.3c0-0.2-0.1-0.4-0.3-0.4C61.3,32.7,61.2,32.9,61.2,33.1z"/>
			<path fill="#663300" d="M64.2,32.8c0.2,0,0.3,0.1,0.5,0.2c0.1,0.1,0.2,0.3,0.2,0.5s-0.1,0.3-0.2,0.5c-0.1,0.1-0.3,0.2-0.5,0.2
				s-0.4-0.1-0.5-0.2c-0.1-0.1-0.2-0.3-0.2-0.5s0.1-0.4,0.2-0.5C63.9,32.9,64,32.8,64.2,32.8z M64.2,34.4c0.2,0,0.3,0.1,0.5,0.2
				c0.1,0.1,0.2,0.3,0.2,0.5c0,0.2-0.1,0.3-0.2,0.5c-0.1,0.1-0.3,0.2-0.5,0.2s-0.4-0.1-0.5-0.2c-0.1-0.1-0.2-0.3-0.2-0.5
				c0-0.2,0.1-0.4,0.2-0.5C63.9,34.5,64,34.4,64.2,34.4z"/>
			<path fill="#663300" d="M65.6,34.2v-0.9c0-0.5,0.1-0.9,0.4-1.2c0.2-0.3,0.6-0.4,1-0.4c0.4,0,0.8,0.1,1,0.4
				c0.2,0.3,0.4,0.7,0.4,1.2v0.9c0,0.5-0.1,0.9-0.4,1.2c-0.3,0.3-0.6,0.4-1,0.4c-0.4,0-0.8-0.1-1-0.4C65.6,35.1,65.6,34.7,65.6,34.2
				z M66.6,33.1v1.3c0,0.2,0.1,0.4,0.3,0.4s0.3-0.1,0.3-0.4v-1.3c0-0.2-0.1-0.4-0.3-0.4S66.6,32.9,66.6,33.1z"/>
			<path fill="#663300" d="M68.8,34.2v-0.9c0-0.5,0.1-0.9,0.4-1.2c0.2-0.3,0.6-0.4,1-0.4s0.8,0.1,1,0.4c0.2,0.3,0.4,0.7,0.4,1.2v0.9
				c0,0.5-0.1,0.9-0.4,1.2c-0.2,0.3-0.6,0.4-1,0.4s-0.8-0.1-1-0.4C68.9,35.1,68.8,34.7,68.8,34.2z M69.9,33.1v1.3
				c0,0.2,0.1,0.4,0.3,0.4s0.3-0.1,0.3-0.4v-1.3c0-0.2-0.1-0.4-0.3-0.4C70,32.7,69.9,32.9,69.9,33.1z"/>
		</g>
		<g>
			<g>
				<path fill="#663300" d="M61.1,9.6c0-0.8,0.1-1.1,0.4-1.1h1.6V7c0-0.3,0.4-0.4,1.2-0.4c0.8,0,1.2,0.1,1.2,0.4v1.6h1.6
					c0.3,0,0.4,0.4,0.4,1.1s-0.1,1.1-0.4,1.1h-1.6v1.6c0,0.3-0.4,0.4-1.2,0.4c-0.8,0-1.1-0.1-1.1-0.4v-1.6h-1.6
					C61.2,10.7,61.1,10.4,61.1,9.6z"/>
			</g>
		</g>
		<g>
			<g>
				<path fill="#663300" d="M61.6,20.4c0.2-0.2,0.3-0.4,0.5-0.4c0.3-0.1,0.5-0.1,0.7-0.1h2.7c0.4,0,0.7,0.1,1,0.4s0.4,0.6,0.4,1v0.1
					c0,0.4-0.2,0.7-0.5,1s-0.6,0.4-1,0.4h-2.7c-0.4,0-0.8-0.1-1.1-0.4s-0.4-0.6-0.4-1C61.2,21.1,61.4,20.7,61.6,20.4z"/>
			</g>
		</g>
	</g>
</g>
</svg>
